<svg width="22" height="23" viewBox="0 0 22 23" fill="none" xmlns="http://www.w3.org/2000/svg">
<path id="Vector" d="M19.5292 22.3489V17.2257C21.0033 15.4264 21.8877 13.1353 21.8877 10.6409C21.8877 4.85588 17.1353 0.165268 11.2745 0.165268C5.41367 0.165268 0.661318 4.85588 0.661318 10.6409C0.661318 16.4259 5.41367 21.1165 11.2745 21.1165C13.2344 21.123 15.1605 20.5836 16.8547 19.5538L19.5292 22.3489ZM11.2745 18.6516C6.71555 18.6516 3.0198 15.0653 3.0198 10.6409C3.0198 6.21647 6.71555 2.63012 11.2745 2.63012C15.8335 2.63012 19.5292 6.21647 19.5292 10.6409C19.5292 15.0653 15.8335 18.6516 11.2745 18.6516Z" fill="#161722"/>
</svg>
