<svg width="23" height="22" viewBox="0 0 23 22" fill="none" xmlns="http://www.w3.org/2000/svg">
<g id="Icons/ActivityFeed" clip-path="url(#clip0_205_190)">
<path id="Vector" d="M15.9492 2.79932C18.5617 2.79932 20.7158 5.18265 20.7158 8.07015C20.7158 11.1868 18.0117 13.1118 15.445 15.4035C12.8783 17.6951 11.5492 18.9327 11.0908 19.2077C10.5867 18.8868 8.93665 17.3743 6.73665 15.4035C4.12415 13.1118 1.46582 11.1868 1.46582 8.07015C1.46582 5.18265 3.61999 2.79932 6.23249 2.79932C8.15749 2.79932 9.21165 3.71598 9.94499 4.77015C10.8158 5.96182 10.9533 6.55765 11.0908 6.55765C11.2283 6.55765 11.3658 5.96182 12.2367 4.77015C12.97 3.71598 14.0242 2.79932 15.9492 2.79932ZM15.9492 1.42432C13.8867 1.42432 12.3283 2.24932 11.0908 3.99098C9.85332 2.29515 8.29499 1.47015 6.23249 1.47015C2.84082 1.42432 0.0908203 4.40348 0.0908203 8.07015C0.0908203 11.416 2.56582 13.5701 4.94915 15.6326C5.22415 15.8618 5.54499 16.1368 5.81999 16.4118L6.87415 17.3285C8.89082 19.116 9.89915 20.0326 10.3575 20.3076C10.5867 20.4452 10.8617 20.5368 11.0908 20.5368C11.3658 20.5368 11.595 20.4452 11.8242 20.3076C12.2825 20.0326 13.1075 19.2993 15.3992 17.191L16.3158 16.366C16.6367 16.091 16.9117 15.816 17.2325 15.5868C19.6617 13.5701 22.0908 11.4618 22.0908 8.07015C22.0908 4.40348 19.3408 1.42432 15.9492 1.42432Z" fill="#262626"/>
</g>
<defs>
<clipPath id="clip0_205_190">
<rect width="22" height="22" fill="white" transform="translate(0.0908203 0.00341797)"/>
</clipPath>
</defs>
</svg>
