<svg width="24" height="24" viewBox="0 0 24 24" fill="none" xmlns="http://www.w3.org/2000/svg">
<path id="Vector" d="M12.9152 0.243128C12.7771 0.124155 12.6013 0.0587769 12.4195 0.0587769C12.2377 0.0587769 12.0619 0.124155 11.9238 0.243128L0.979492 9.68854V20.7927C0.979492 21.4036 1.22055 21.9896 1.64963 22.4217C2.07872 22.8537 2.66068 23.0964 3.26749 23.0964L8.53683 23.1896C8.7391 23.1896 8.93308 23.1087 9.07611 22.9647C9.21914 22.8206 9.29949 22.6253 9.29949 22.4217V16.2898C9.29949 15.6788 9.54055 15.0929 9.96963 14.6608C10.3987 14.2288 11.8127 13.7184 12.4195 13.7184C13.0263 13.7184 14.4403 14.2288 14.8694 14.6608C15.2984 15.0929 15.5395 15.6788 15.5395 16.2898V22.4217C15.5395 22.6253 15.6198 22.8206 15.7629 22.9647C15.9059 23.1087 16.0999 23.1896 16.3022 23.1896L21.5715 23.0964C22.1783 23.0964 22.7603 22.8537 23.1894 22.4217C23.6184 21.9896 23.8595 21.4036 23.8595 20.7927V9.68854L12.9152 0.243128Z" fill="#161722"/>
</svg>
