<svg width="5" height="16" viewBox="0 0 5 16" fill="none" xmlns="http://www.w3.org/2000/svg">
<g id="Group">
<path id="Vector" d="M1.82834 1.95084C1.82834 2.23024 2.14998 2.45674 2.54674 2.45674C2.9435 2.45674 3.26514 2.23024 3.26514 1.95084C3.26514 1.67144 2.9435 1.44495 2.54674 1.44495C2.14998 1.44495 1.82834 1.67144 1.82834 1.95084Z" fill="#161722" stroke="#161722" stroke-width="2"/>
<path id="Vector_2" d="M1.82834 7.77582C1.82834 8.05522 2.14998 8.28172 2.54674 8.28172C2.9435 8.28172 3.26514 8.05522 3.26514 7.77582C3.26514 7.49643 2.9435 7.26993 2.54674 7.26993C2.14998 7.26993 1.82834 7.49643 1.82834 7.77582Z" fill="#161722" stroke="#161722" stroke-width="2"/>
<path id="Vector_3" d="M1.82834 13.6008C1.82834 13.8802 2.14998 14.1067 2.54674 14.1067C2.9435 14.1067 3.26514 13.8802 3.26514 13.6008C3.26514 13.3214 2.9435 13.0949 2.54674 13.0949C2.14998 13.0949 1.82834 13.3214 1.82834 13.6008Z" fill="#161722" stroke="#161722" stroke-width="2"/>
</g>
</svg>
