<svg width="30" height="28" viewBox="0 0 30 28" fill="none" xmlns="http://www.w3.org/2000/svg">
<g id="Group">
<path id="Vector" d="M28.5646 7.13095L14.0784 14.8856" stroke="#161722" stroke-width="2" stroke-linecap="round" stroke-linejoin="round"/>
<path id="Vector (Stroke)" fill-rule="evenodd" clip-rule="evenodd" d="M29.5195 6.49379C29.7069 6.84177 29.6661 7.2733 29.4143 7.60404L16.1036 25.0891C15.8365 25.44 15.3841 25.6096 14.9601 25.5179C14.5361 25.4261 14.2254 25.0914 14.1747 24.6717L13.047 15.3373L5.59857 9.38094C5.2643 9.11364 5.14468 8.66646 5.29735 8.25489C5.45002 7.84333 5.84366 7.55182 6.28857 7.52083L28.5349 5.97178C28.9493 5.94292 29.332 6.14582 29.5195 6.49379ZM9.1076 9.41053L14.7833 13.9492C14.9839 14.1096 15.112 14.3395 15.1428 14.5944L16.0106 21.7778L26.3387 8.2107L9.1076 9.41053Z" fill="#161722"/>
</g>
</svg>
